<svg width="200" height="168" viewBox="0 0 200 168" fill="none" xmlns="http://www.w3.org/2000/svg">
<path d="M196.62 30.335H67.8105V45.5011H186.394V126.242H67.8105V146.197H89.3562L74.1782 160C73.6767 160.456 73.3936 161.085 73.3936 161.743V164.839C73.3936 166.175 74.5413 167.259 75.9577 167.259H153.586C155.002 167.259 156.15 166.175 156.15 164.839V161.743C156.15 161.086 155.866 160.456 155.365 160L140.187 146.197H196.62C198.486 146.197 200 144.768 200 143.004V33.5258C200 31.7639 198.486 30.335 196.62 30.335ZM114.771 133.269C116.826 133.269 118.491 134.841 118.491 136.78C118.491 138.719 116.826 140.292 114.771 140.292C112.718 140.292 111.053 138.719 111.053 136.78C111.053 134.841 112.718 133.269 114.771 133.269Z" fill="black"/>
<path d="M52.1061 0H4.14154C1.85385 0 0 1.74982 0 3.90915V163.188C0 165.348 1.85385 167.098 4.14154 167.098H52.1061C54.3938 167.098 56.2477 165.348 56.2477 163.188V3.90915C56.2482 1.74982 54.3938 0 52.1061 0ZM23.6759 19.857C23.6759 19.5157 23.9687 19.2388 24.3308 19.2388H31.9179C32.2795 19.2388 32.5728 19.5157 32.5728 19.857V81.5349C32.5728 81.8767 32.2795 82.1535 31.9179 82.1535H24.3308C23.9687 82.1535 23.6759 81.8767 23.6759 81.5349V19.857ZM32.02 113.953C32.02 115.984 30.2764 117.631 28.1236 117.631C25.9718 117.631 24.2272 115.984 24.2272 113.953C24.2272 111.922 25.9713 110.276 28.1236 110.276C30.2764 110.276 32.02 111.922 32.02 113.953ZM28.1241 143.306C23.059 143.306 18.9523 139.431 18.9523 134.649C18.9523 129.868 23.059 125.992 28.1241 125.992C33.1892 125.992 37.2959 129.868 37.2959 134.649C37.2959 139.431 33.1892 143.306 28.1241 143.306Z" fill="black"/>
</svg>
